<svg xmlns="http://www.w3.org/2000/svg" xmlns:xlink="http://www.w3.org/1999/xlink" width="512" zoomAndPan="magnify" viewBox="0 0 384 383.999986" height="512" preserveAspectRatio="xMidYMid meet" version="1.0"><defs><clipPath id="8a04940110"><path d="M 16.910156 16.910156 L 367.089844 16.910156 L 367.089844 367.089844 L 16.910156 367.089844 Z M 16.910156 16.910156 " clip-rule="nonzero"/></clipPath><clipPath id="455b5e92fe"><path d="M 192 16.910156 C 95.300781 16.910156 16.910156 95.300781 16.910156 192 C 16.910156 288.699219 95.300781 367.089844 192 367.089844 C 288.699219 367.089844 367.089844 288.699219 367.089844 192 C 367.089844 95.300781 288.699219 16.910156 192 16.910156 Z M 192 16.910156 " clip-rule="nonzero"/></clipPath><clipPath id="10815875bf"><path d="M 0.910156 0.910156 L 351.089844 0.910156 L 351.089844 351.089844 L 0.910156 351.089844 Z M 0.910156 0.910156 " clip-rule="nonzero"/></clipPath><clipPath id="2473de9c83"><path d="M 176 0.910156 C 79.300781 0.910156 0.910156 79.300781 0.910156 176 C 0.910156 272.699219 79.300781 351.089844 176 351.089844 C 272.699219 351.089844 351.089844 272.699219 351.089844 176 C 351.089844 79.300781 272.699219 0.910156 176 0.910156 Z M 176 0.910156 " clip-rule="nonzero"/></clipPath><clipPath id="0b0b361ce4"><rect x="0" width="352" y="0" height="352"/></clipPath><clipPath id="f329037797"><path d="M 90.644531 116.609375 L 240.644531 116.609375 L 240.644531 299.609375 L 90.644531 299.609375 Z M 90.644531 116.609375 " clip-rule="nonzero"/></clipPath><clipPath id="3f352e77ca"><path d="M 83.519531 62.652344 L 220.9375 62.652344 L 220.9375 104 L 83.519531 104 Z M 83.519531 62.652344 " clip-rule="nonzero"/></clipPath><clipPath id="436be83541"><path d="M 152.746094 70.691406 C 175.820312 63.949219 198.378906 57.210938 220.9375 70.171875 L 220.9375 94.804688 C 197.601562 82.359375 174.265625 89.359375 151.707031 96.101562 C 128.632812 102.84375 106.074219 109.585938 83.519531 96.621094 L 83.519531 71.988281 C 106.851562 84.433594 130.1875 77.433594 152.746094 70.691406 Z M 152.746094 70.691406 " clip-rule="nonzero"/></clipPath><clipPath id="4f6394d079"><path d="M 0.519531 0.652344 L 137.9375 0.652344 L 137.9375 42 L 0.519531 42 Z M 0.519531 0.652344 " clip-rule="nonzero"/></clipPath><clipPath id="f2a355a958"><path d="M 69.746094 8.691406 C 92.820312 1.949219 115.378906 -4.789062 137.9375 8.171875 L 137.9375 32.804688 C 114.601562 20.359375 91.265625 27.359375 68.707031 34.101562 C 45.632812 40.84375 23.074219 47.585938 0.519531 34.621094 L 0.519531 9.988281 C 23.851562 22.433594 47.1875 15.433594 69.746094 8.691406 Z M 69.746094 8.691406 " clip-rule="nonzero"/></clipPath><clipPath id="697b1540b3"><rect x="0" width="138" y="0" height="42"/></clipPath><clipPath id="2c32ef797e"><path d="M 152.226562 116.609375 L 335.226562 116.609375 L 335.226562 299.609375 L 152.226562 299.609375 Z M 152.226562 116.609375 " clip-rule="nonzero"/></clipPath><clipPath id="bfc3eca57d"><path d="M 236 156.949219 L 311 156.949219 L 311 247.699219 L 236 247.699219 Z M 236 156.949219 " clip-rule="nonzero"/></clipPath></defs><g clip-path="url(#8a04940110)"><g clip-path="url(#455b5e92fe)"><g transform="matrix(1, 0, 0, 1, 16, 16)"><g clip-path="url(#0b0b361ce4)"><g clip-path="url(#10815875bf)"><g clip-path="url(#2473de9c83)"><path fill="#919191" d="M 0.910156 0.910156 L 351.089844 0.910156 L 351.089844 351.089844 L 0.910156 351.089844 Z M 0.910156 0.910156 " fill-opacity="1" fill-rule="nonzero"/></g></g></g></g></g></g><g clip-path="url(#f329037797)"><path fill="#000000" d="M 190.257812 199.074219 L 180.273438 199.074219 C 203.09375 199.074219 221.566406 180.601562 221.566406 157.859375 C 221.566406 135.082031 203.09375 116.609375 180.273438 116.609375 L 90.671875 116.609375 L 90.671875 121.574219 L 109.25 121.574219 L 109.25 293.550781 L 90.671875 293.550781 L 90.671875 299.609375 L 190.257812 299.609375 C 218.054688 299.609375 240.617188 277.121094 240.617188 249.339844 C 240.582031 221.5625 218.054688 199.074219 190.257812 199.074219 Z M 138.070312 121.574219 L 159.609375 121.574219 C 179.6875 121.574219 195.964844 137.820312 195.964844 157.859375 C 195.964844 177.902344 179.6875 194.144531 159.609375 194.144531 L 138.070312 194.144531 Z M 167.914062 293.550781 L 138.070312 293.550781 L 138.070312 205.097656 L 167.914062 205.097656 C 192.378906 205.097656 212.203125 224.917969 212.203125 249.339844 C 212.203125 273.761719 192.378906 293.550781 167.914062 293.550781 Z M 167.914062 293.550781 " fill-opacity="1" fill-rule="nonzero"/></g><g clip-path="url(#3f352e77ca)"><g clip-path="url(#436be83541)"><g transform="matrix(1, 0, 0, 1, 83, 62)"><g clip-path="url(#697b1540b3)"><g clip-path="url(#4f6394d079)"><g clip-path="url(#f2a355a958)"><path fill="#222222" d="M 0.519531 0.652344 L 137.9375 0.652344 L 137.9375 42.140625 L 0.519531 42.140625 Z M 0.519531 0.652344 " fill-opacity="1" fill-rule="nonzero"/></g></g></g></g></g></g><g clip-path="url(#2c32ef797e)"><path fill="#252825" d="M 210.992188 293.53125 C 199.589844 289.171875 189.195312 282.632812 180.308594 274.082031 C 171.425781 265.53125 164.464844 255.472656 159.605469 244.238281 C 154.910156 233.34375 152.480469 221.855469 152.226562 209.953125 C 151.976562 198.050781 153.988281 186.480469 158.261719 175.414062 C 162.621094 164.015625 169.160156 153.621094 177.710938 144.734375 C 186.261719 135.847656 196.320312 128.890625 207.554688 124.027344 C 218.453125 119.332031 229.9375 116.902344 241.839844 116.652344 C 253.746094 116.398438 265.3125 118.410156 276.378906 122.6875 C 287.78125 127.046875 298.175781 133.585938 307.0625 142.136719 C 315.945312 150.6875 322.90625 160.746094 327.765625 171.980469 C 332.460938 182.875 334.890625 194.359375 335.144531 206.265625 C 335.394531 218.167969 333.382812 229.738281 329.109375 240.800781 C 324.75 252.203125 318.210938 262.597656 309.660156 271.484375 C 301.109375 280.371094 291.050781 287.328125 279.816406 292.191406 C 268.917969 296.882812 257.433594 299.316406 245.53125 299.566406 C 244.859375 299.566406 244.273438 299.566406 243.601562 299.566406 C 232.367188 299.566406 221.386719 297.554688 210.992188 293.53125 Z M 242.007812 126.792969 C 220.296875 127.214844 200.011719 136.097656 185.003906 151.777344 C 170 167.453125 161.953125 188.074219 162.371094 209.785156 C 162.789062 231.496094 171.675781 251.785156 187.351562 266.789062 C 202.609375 281.460938 222.558594 289.425781 243.6875 289.425781 C 244.273438 289.425781 244.773438 289.425781 245.363281 289.425781 C 267.074219 289.003906 287.359375 280.117188 302.367188 264.441406 C 317.371094 248.765625 325.417969 228.144531 325 206.433594 C 324.582031 184.722656 315.695312 164.433594 300.019531 149.429688 C 284.761719 134.757812 264.8125 126.792969 243.6875 126.792969 C 222.558594 126.792969 242.597656 126.792969 242.007812 126.792969 Z M 242.007812 126.792969 " fill-opacity="1" fill-rule="nonzero"/></g><g clip-path="url(#bfc3eca57d)"><path fill="#000000" d="M 279.984375 179.078125 L 295.128906 163.511719 L 303.921875 172.515625 L 288.035156 187.660156 L 310.378906 187.660156 L 310.378906 200.15625 L 287.929688 200.15625 L 303.921875 215.691406 L 295.128906 224.515625 L 273.421875 202.703125 L 251.710938 224.515625 L 242.921875 215.722656 L 258.914062 200.191406 L 236.460938 200.191406 L 236.460938 187.660156 L 258.800781 187.660156 L 242.917969 172.515625 L 251.710938 163.511719 L 266.851562 179.078125 L 266.851562 156.949219 L 279.984375 156.949219 Z M 266.851562 218.054688 L 279.984375 218.054688 L 279.984375 247.707031 L 266.851562 247.707031 Z M 266.851562 218.054688 " fill-opacity="1" fill-rule="nonzero"/></g></svg>